<?xml version="1.0" standalone="no"?>
<!DOCTYPE svg PUBLIC "-//W3C//DTD SVG 20010904//EN"
 "http://www.w3.org/TR/2001/REC-SVG-20010904/DTD/svg10.dtd">
<svg version="1.0" xmlns="http://www.w3.org/2000/svg"
 width="700.000000pt" height="700.000000pt" viewBox="0 0 700.000000 700.000000"
 preserveAspectRatio="xMidYMid meet">
<metadata>
Created by potrace 1.14, written by Peter Selinger 2001-2017
</metadata>
<g transform="translate(0.000000,700.000000) scale(0.100000,-0.100000)"
fill="#000000" stroke="none">
<path d="M867 5763 c-4 -3 -7 -17 -7 -30 l0 -23 356 0 355 0 -3 28 -3 27 -346
3 c-190 1 -348 -1 -352 -5z"/>
<path d="M2790 3819 c0 -1063 -2 -1930 -4 -1928 -3 3 -65 196 -139 429 -73
234 -347 1083 -608 1888 l-474 1462 -349 0 c-274 0 -347 -3 -343 -12 5 -15
1327 -3944 1430 -4251 l69 -209 852 5 c903 5 939 6 1207 57 364 69 692 215
944 421 307 250 529 644 625 1112 56 270 65 371 65 747 0 362 -9 482 -56 710
-147 722 -527 1173 -1159 1378 -143 47 -222 65 -405 95 -122 19 -175 21 -892
24 l-763 4 0 -1932z m2262 1164 c113 -125 204 -292 257 -470 25 -84 76 -328
91 -438 17 -123 25 -731 11 -882 -44 -481 -178 -819 -421 -1063 -215 -216
-498 -339 -872 -379 -145 -16 -712 -15 -705 1 3 7 334 726 737 1597 680 1474
801 1726 820 1719 5 -2 41 -40 82 -85z"/>
</g>
</svg>
